<svg xmlns="http://www.w3.org/2000/svg" version="1.1" xmlns:xlink="http://www.w3.org/1999/xlink" xmlns:svgjs="http://svgjs.dev/svgjs" width="1440" height="560" preserveAspectRatio="none" viewBox="0 0 1440 560"><g mask="url(&quot;#SvgjsMask1889&quot;)" fill="none"><rect width="1440" height="560" x="0" y="0" fill="rgba(0, 0, 0, 1)"></rect><g transform="translate(-72, 5.6)" stroke-linecap="round" stroke="url(&quot;#SvgjsLinearGradient1890&quot;)"><path d="M5 141.68 L5 186.68" stroke-width="7.5"></path><path d="M5 197.93 L5 418.32" stroke-width="7.5"></path><path d="M15 137.34 L15 197.34" stroke-width="7.5"></path><path d="M15 208.59 L15 422.66" stroke-width="7.5"></path><path d="M25 86.31 L25 473.69" stroke-width="7.5"></path><path d="M35 102.82 L35 457.18" stroke-width="7.5"></path><path d="M45 252.03 L45 267.03" stroke-width="7.5"></path><path d="M45 278.28 L45 285.78" stroke-width="7.5"></path><path d="M45 297.03 L45 307.97" stroke-width="7.5"></path><path d="M55 225.41 L55 285.40999999999997" stroke-width="7.5"></path><path d="M55 296.65999999999997 L55 304.15999999999997" stroke-width="7.5"></path><path d="M55 315.40999999999997 L55 334.58" stroke-width="7.5"></path><path d="M65 249.88 L65 272.38" stroke-width="7.5"></path><path d="M65 283.63 L65 291.13" stroke-width="7.5"></path><path d="M65 302.38 L65 310.12" stroke-width="7.5"></path><path d="M75 100.65 L75 183.15" stroke-width="7.5"></path><path d="M75 194.4 L75 321.9" stroke-width="7.5"></path><path d="M75 333.15 L75 459.35" stroke-width="7.5"></path><path d="M85 224.19 L85 239.19" stroke-width="7.5"></path><path d="M85 250.44 L85 287.94" stroke-width="7.5"></path><path d="M85 299.19 L85 335.81" stroke-width="7.5"></path><path d="M95 146.47 L95 228.97" stroke-width="7.5"></path><path d="M95 240.22 L95 247.72" stroke-width="7.5"></path><path d="M95 258.97 L95 413.52" stroke-width="7.5"></path><path d="M105 213.63 L105 346.37" stroke-width="7.5"></path><path d="M115 162.03 L115 207.03" stroke-width="7.5"></path><path d="M115 218.28 L115 360.78" stroke-width="7.5"></path><path d="M115 372.03 L115 397.98" stroke-width="7.5"></path><path d="M125 196.22 L125 316.22" stroke-width="7.5"></path><path d="M125 327.47 L125 342.47" stroke-width="7.5"></path><path d="M125 353.72 L125 363.78" stroke-width="7.5"></path><path d="M135 18.71 L135 161.21" stroke-width="7.5"></path><path d="M135 172.46 L135 449.96000000000004" stroke-width="7.5"></path><path d="M135 461.21000000000004 L135 541.29" stroke-width="7.5"></path><path d="M145 221.94 L145 251.94" stroke-width="7.5"></path><path d="M145 263.19 L145 315.69" stroke-width="7.5"></path><path d="M145 326.94 L145 338.06" stroke-width="7.5"></path><path d="M155 21.67 L155 231.67000000000002" stroke-width="7.5"></path><path d="M155 242.92000000000002 L155 340.42" stroke-width="7.5"></path><path d="M155 351.67 L155 538.33" stroke-width="7.5"></path><path d="M165 97.05 L165 322.05" stroke-width="7.5"></path><path d="M165 333.3 L165 462.95" stroke-width="7.5"></path><path d="M175 59.24 L175 321.74" stroke-width="7.5"></path><path d="M175 332.99 L175 500.76" stroke-width="7.5"></path><path d="M185 232.56 L185 262.56" stroke-width="7.5"></path><path d="M185 273.81 L185 327.44" stroke-width="7.5"></path><path d="M195 209.88 L195 350.13" stroke-width="7.5"></path><path d="M205 25.66 L205 460.66" stroke-width="7.5"></path><path d="M205 471.91 L205 509.41" stroke-width="7.5"></path><path d="M205 520.6600000000001 L205 534.34" stroke-width="7.5"></path><path d="M215 116.84 L215 251.84" stroke-width="7.5"></path><path d="M215 263.09000000000003 L215 443.16" stroke-width="7.5"></path><path d="M225 239.43 L225 291.93" stroke-width="7.5"></path><path d="M225 303.18 L225 320.57" stroke-width="7.5"></path><path d="M235 166.13 L235 286.13" stroke-width="7.5"></path><path d="M235 297.38 L235 312.38" stroke-width="7.5"></path><path d="M235 323.63 L235 393.88" stroke-width="7.5"></path><path d="M245 246 L245 253.5" stroke-width="7.5"></path><path d="M245 264.75 L245 287.25" stroke-width="7.5"></path><path d="M245 298.5 L245 314" stroke-width="7.5"></path><path d="M255 43.63 L255 133.63" stroke-width="7.5"></path><path d="M255 144.88 L255 197.38" stroke-width="7.5"></path><path d="M255 208.63 L255 516.37" stroke-width="7.5"></path><path d="M265 221.28 L265 296.28" stroke-width="7.5"></path><path d="M265 307.53 L265 315.03" stroke-width="7.5"></path><path d="M265 326.28 L265 338.72" stroke-width="7.5"></path><path d="M275 150.26 L275 172.76" stroke-width="7.5"></path><path d="M275 184.01 L275 229.01" stroke-width="7.5"></path><path d="M275 240.26 L275 409.74" stroke-width="7.5"></path><path d="M285 84.47 L285 99.47" stroke-width="7.5"></path><path d="M285 110.72 L285 475.53" stroke-width="7.5"></path><path d="M295 229.4 L295 259.4" stroke-width="7.5"></path><path d="M295 270.65 L295 308.15" stroke-width="7.5"></path><path d="M295 319.4 L295 330.61" stroke-width="7.5"></path><path d="M305 21.49 L305 28.99" stroke-width="7.5"></path><path d="M305 40.239999999999995 L305 538.51" stroke-width="7.5"></path><path d="M315 217.93 L315 277.93" stroke-width="7.5"></path><path d="M315 289.18 L315 311.68" stroke-width="7.5"></path><path d="M315 322.93 L315 342.07" stroke-width="7.5"></path><path d="M325 132.87 L325 335.37" stroke-width="7.5"></path><path d="M325 346.62 L325 427.13" stroke-width="7.5"></path><path d="M335 134.69 L335 269.69" stroke-width="7.5"></path><path d="M335 280.94 L335 370.94" stroke-width="7.5"></path><path d="M335 382.19 L335 425.31" stroke-width="7.5"></path><path d="M345 134.03 L345 336.53" stroke-width="7.5"></path><path d="M345 347.78 L345 425.97" stroke-width="7.5"></path><path d="M355 62.13 L355 279.63" stroke-width="7.5"></path><path d="M355 290.88 L355 497.88" stroke-width="7.5"></path><path d="M365 123.82 L365 266.32" stroke-width="7.5"></path><path d="M365 277.57 L365 367.57" stroke-width="7.5"></path><path d="M365 378.82 L365 436.18" stroke-width="7.5"></path><path d="M375 71.49 L375 341.49" stroke-width="7.5"></path><path d="M375 352.74 L375 420.24" stroke-width="7.5"></path><path d="M375 431.49 L375 488.51" stroke-width="7.5"></path><path d="M385 51.28 L385 163.78" stroke-width="7.5"></path><path d="M385 175.03 L385 467.53" stroke-width="7.5"></path><path d="M385 478.78 L385 508.73" stroke-width="7.5"></path><path d="M395 48.41 L395 213.41" stroke-width="7.5"></path><path d="M395 224.66 L395 511.6" stroke-width="7.5"></path><path d="M405 187.88 L405 255.38" stroke-width="7.5"></path><path d="M405 266.63 L405 372.13" stroke-width="7.5"></path><path d="M415 94.38 L415 356.88" stroke-width="7.5"></path><path d="M415 368.13 L415 405.63" stroke-width="7.5"></path><path d="M415 416.88 L415 465.62" stroke-width="7.5"></path><path d="M425 5.11 L425 320.11" stroke-width="7.5"></path><path d="M425 331.36 L425 398.86" stroke-width="7.5"></path><path d="M425 410.11 L425 554.89" stroke-width="7.5"></path><path d="M435 111.29 L435 306.29" stroke-width="7.5"></path><path d="M435 317.54 L435 422.54" stroke-width="7.5"></path><path d="M435 433.79 L435 448.71" stroke-width="7.5"></path><path d="M445 226.16 L445 278.65999999999997" stroke-width="7.5"></path><path d="M445 289.90999999999997 L445 297.40999999999997" stroke-width="7.5"></path><path d="M445 308.65999999999997 L445 333.85" stroke-width="7.5"></path><path d="M455 9.64 L455 362.14" stroke-width="7.5"></path><path d="M455 373.39 L455 515.89" stroke-width="7.5"></path><path d="M455 527.14 L455 550.36" stroke-width="7.5"></path><path d="M465 225.69 L465 270.69" stroke-width="7.5"></path><path d="M465 281.94 L465 296.94" stroke-width="7.5"></path><path d="M465 308.19 L465 334.31" stroke-width="7.5"></path><path d="M475 168.29 L475 310.78999999999996" stroke-width="7.5"></path><path d="M475 322.03999999999996 L475 391.71" stroke-width="7.5"></path><path d="M485 114.16 L485 211.66" stroke-width="7.5"></path><path d="M485 222.91 L485 372.90999999999997" stroke-width="7.5"></path><path d="M485 384.15999999999997 L485 445.84" stroke-width="7.5"></path><path d="M495 109.81 L495 304.81" stroke-width="7.5"></path><path d="M495 316.06 L495 450.19" stroke-width="7.5"></path><path d="M505 151.35 L505 408.64" stroke-width="7.5"></path><path d="M515 11.42 L515 303.92" stroke-width="7.5"></path><path d="M515 315.17 L515 435.17" stroke-width="7.5"></path><path d="M515 446.42 L515 548.58" stroke-width="7.5"></path><path d="M525 79.87 L525 409.87" stroke-width="7.5"></path><path d="M525 421.12 L525 443.62" stroke-width="7.5"></path><path d="M525 454.87 L525 480.13" stroke-width="7.5"></path><path d="M535 142.5 L535 307.5" stroke-width="7.5"></path><path d="M535 318.75 L535 326.25" stroke-width="7.5"></path><path d="M535 337.5 L535 417.5" stroke-width="7.5"></path><path d="M545 144.69 L545 174.69" stroke-width="7.5"></path><path d="M545 185.94 L545 223.44" stroke-width="7.5"></path><path d="M545 234.69 L545 415.31" stroke-width="7.5"></path><path d="M555 91.41 L555 353.90999999999997" stroke-width="7.5"></path><path d="M555 365.15999999999997 L555 395.15999999999997" stroke-width="7.5"></path><path d="M555 406.40999999999997 L555 468.59" stroke-width="7.5"></path><path d="M565 5.64 L565 50.64" stroke-width="7.5"></path><path d="M565 61.89 L565 99.39" stroke-width="7.5"></path><path d="M565 110.64 L565 554.36" stroke-width="7.5"></path><path d="M575 230.97 L575 283.47" stroke-width="7.5"></path><path d="M575 294.72 L575 329.03" stroke-width="7.5"></path><path d="M585 113.15 L585 143.15" stroke-width="7.5"></path><path d="M585 154.4 L585 446.85" stroke-width="7.5"></path><path d="M595 163.03 L595 283.03" stroke-width="7.5"></path><path d="M595 294.28 L595 369.28" stroke-width="7.5"></path><path d="M595 380.53 L595 396.98" stroke-width="7.5"></path><path d="M605 109.31 L605 450.69" stroke-width="7.5"></path><path d="M615 249.54 L615 264.53999999999996" stroke-width="7.5"></path><path d="M615 275.78999999999996 L615 310.46" stroke-width="7.5"></path><path d="M625 48.42 L625 318.42" stroke-width="7.5"></path><path d="M625 329.67 L625 511.58000000000004" stroke-width="7.5"></path><path d="M635 29.23 L635 119.23" stroke-width="7.5"></path><path d="M635 130.48000000000002 L635 437.98" stroke-width="7.5"></path><path d="M635 449.23 L635 530.77" stroke-width="7.5"></path><path d="M645 115.07 L645 250.07" stroke-width="7.5"></path><path d="M645 261.32 L645 381.32" stroke-width="7.5"></path><path d="M645 392.57 L645 444.93" stroke-width="7.5"></path><path d="M655 17.66 L655 55.16" stroke-width="7.5"></path><path d="M655 66.41 L655 542.34" stroke-width="7.5"></path><path d="M665 194.2 L665 239.2" stroke-width="7.5"></path><path d="M665 250.45 L665 365.8" stroke-width="7.5"></path><path d="M675 47.08 L675 92.08" stroke-width="7.5"></path><path d="M675 103.33 L675 305.83" stroke-width="7.5"></path><path d="M675 317.08 L675 512.92" stroke-width="7.5"></path><path d="M685 97.7 L685 165.2" stroke-width="7.5"></path><path d="M685 176.45 L685 341.45" stroke-width="7.5"></path><path d="M685 352.7 L685 462.3" stroke-width="7.5"></path><path d="M695 127.62 L695 172.62" stroke-width="7.5"></path><path d="M695 183.87 L695 356.37" stroke-width="7.5"></path><path d="M695 367.62 L695 432.38" stroke-width="7.5"></path><path d="M705 163.1 L705 396.9" stroke-width="7.5"></path><path d="M715 38.25 L715 521.75" stroke-width="7.5"></path><path d="M725 9.05 L725 550.95" stroke-width="7.5"></path><path d="M735 59.35 L735 449.35" stroke-width="7.5"></path><path d="M735 460.6 L735 468.1" stroke-width="7.5"></path><path d="M735 479.35 L735 500.64" stroke-width="7.5"></path><path d="M745 62.4 L745 279.9" stroke-width="7.5"></path><path d="M745 291.15 L745 388.65" stroke-width="7.5"></path><path d="M745 399.9 L745 497.6" stroke-width="7.5"></path><path d="M755 70.43 L755 489.57" stroke-width="7.5"></path><path d="M765 148.25 L765 208.25" stroke-width="7.5"></path><path d="M765 219.5 L765 279.5" stroke-width="7.5"></path><path d="M765 290.75 L765 411.75" stroke-width="7.5"></path><path d="M775 111.46 L775 328.96" stroke-width="7.5"></path><path d="M775 340.21 L775 448.54" stroke-width="7.5"></path><path d="M785 188.42 L785 293.41999999999996" stroke-width="7.5"></path><path d="M785 304.66999999999996 L785 319.66999999999996" stroke-width="7.5"></path><path d="M785 330.91999999999996 L785 371.58" stroke-width="7.5"></path><path d="M795 36.81 L795 74.31" stroke-width="7.5"></path><path d="M795 85.56 L795 220.56" stroke-width="7.5"></path><path d="M795 231.81 L795 523.19" stroke-width="7.5"></path><path d="M805 255.06 L805 262.56" stroke-width="7.5"></path><path d="M805 273.81 L805 281.31" stroke-width="7.5"></path><path d="M805 292.56 L805 304.94" stroke-width="7.5"></path><path d="M815 156.14 L815 283.64" stroke-width="7.5"></path><path d="M815 294.89 L815 354.89" stroke-width="7.5"></path><path d="M815 366.14 L815 403.86" stroke-width="7.5"></path><path d="M825 135.88 L825 424.13" stroke-width="7.5"></path><path d="M835 37.53 L835 412.53" stroke-width="7.5"></path><path d="M835 423.78 L835 476.28" stroke-width="7.5"></path><path d="M835 487.53 L835 522.47" stroke-width="7.5"></path><path d="M845 180.74 L845 233.24" stroke-width="7.5"></path><path d="M845 244.49 L845 379.26" stroke-width="7.5"></path><path d="M855 206.23 L855 251.23" stroke-width="7.5"></path><path d="M855 262.48 L855 353.77" stroke-width="7.5"></path><path d="M865 42.04 L865 162.04" stroke-width="7.5"></path><path d="M865 173.29 L865 458.28999999999996" stroke-width="7.5"></path><path d="M865 469.53999999999996 L865 517.96" stroke-width="7.5"></path><path d="M875 146.05 L875 281.05" stroke-width="7.5"></path><path d="M875 292.3 L875 367.3" stroke-width="7.5"></path><path d="M875 378.55 L875 413.95" stroke-width="7.5"></path><path d="M885 108.11 L885 333.11" stroke-width="7.5"></path><path d="M885 344.36 L885 451.89" stroke-width="7.5"></path><path d="M895 216.17 L895 321.16999999999996" stroke-width="7.5"></path><path d="M895 332.41999999999996 L895 343.83" stroke-width="7.5"></path><path d="M905 78.41 L905 348.40999999999997" stroke-width="7.5"></path><path d="M905 359.65999999999997 L905 427.15999999999997" stroke-width="7.5"></path><path d="M905 438.40999999999997 L905 481.6" stroke-width="7.5"></path><path d="M915 99.79 L915 339.79" stroke-width="7.5"></path><path d="M915 351.04 L915 396.04" stroke-width="7.5"></path><path d="M915 407.29 L915 460.21" stroke-width="7.5"></path><path d="M925 137.91 L925 287.90999999999997" stroke-width="7.5"></path><path d="M925 299.15999999999997 L925 422.09" stroke-width="7.5"></path><path d="M935 169.57 L935 177.07" stroke-width="7.5"></path><path d="M935 188.32 L935 360.82" stroke-width="7.5"></path><path d="M935 372.07 L935 390.43" stroke-width="7.5"></path><path d="M945 73.51 L945 418.51" stroke-width="7.5"></path><path d="M945 429.76 L945 452.26" stroke-width="7.5"></path><path d="M945 463.51 L945 486.49" stroke-width="7.5"></path><path d="M955 104.26 L955 269.26" stroke-width="7.5"></path><path d="M955 280.51 L955 340.51" stroke-width="7.5"></path><path d="M955 351.76 L955 455.74" stroke-width="7.5"></path><path d="M965 53.03 L965 375.53" stroke-width="7.5"></path><path d="M965 386.78 L965 506.97" stroke-width="7.5"></path><path d="M975 253.39 L975 268.39" stroke-width="7.5"></path><path d="M975 279.64 L975 306.61" stroke-width="7.5"></path><path d="M985 244.62 L985 267.12" stroke-width="7.5"></path><path d="M985 278.37 L985 315.38" stroke-width="7.5"></path><path d="M995 170.2 L995 389.8" stroke-width="7.5"></path><path d="M1005 104.78 L1005 254.78" stroke-width="7.5"></path><path d="M1005 266.03 L1005 455.23" stroke-width="7.5"></path><path d="M1015 158.55 L1015 401.45" stroke-width="7.5"></path><path d="M1025 155.07 L1025 200.07" stroke-width="7.5"></path><path d="M1025 211.32 L1025 404.93" stroke-width="7.5"></path><path d="M1035 107.63 L1035 362.63" stroke-width="7.5"></path><path d="M1035 373.88 L1035 452.38" stroke-width="7.5"></path><path d="M1045 107.55 L1045 452.45" stroke-width="7.5"></path><path d="M1055 35.7 L1055 448.2" stroke-width="7.5"></path><path d="M1055 459.45 L1055 489.45" stroke-width="7.5"></path><path d="M1055 500.7 L1055 524.3" stroke-width="7.5"></path><path d="M1065 166.95 L1065 354.45" stroke-width="7.5"></path><path d="M1065 365.7 L1065 373.2" stroke-width="7.5"></path><path d="M1065 384.45 L1065 393.05" stroke-width="7.5"></path><path d="M1075 201.41 L1075 261.40999999999997" stroke-width="7.5"></path><path d="M1075 272.65999999999997 L1075 358.59" stroke-width="7.5"></path><path d="M1085 22.36 L1085 74.86" stroke-width="7.5"></path><path d="M1085 86.11 L1085 341.11" stroke-width="7.5"></path><path d="M1085 352.36 L1085 537.64" stroke-width="7.5"></path><path d="M1095 45.4 L1095 82.9" stroke-width="7.5"></path><path d="M1095 94.15 L1095 221.65" stroke-width="7.5"></path><path d="M1095 232.9 L1095 514.61" stroke-width="7.5"></path><path d="M1105 154.1 L1105 405.9" stroke-width="7.5"></path><path d="M1115 59.87 L1115 292.37" stroke-width="7.5"></path><path d="M1115 303.62 L1115 500.13" stroke-width="7.5"></path><path d="M1125 242.28 L1125 272.28" stroke-width="7.5"></path><path d="M1125 283.53 L1125 298.53" stroke-width="7.5"></path><path d="M1125 309.78 L1125 317.72" stroke-width="7.5"></path><path d="M1135 218.31 L1135 263.31" stroke-width="7.5"></path><path d="M1135 274.56 L1135 282.06" stroke-width="7.5"></path><path d="M1135 293.31 L1135 341.69" stroke-width="7.5"></path><path d="M1145 80.56 L1145 425.56" stroke-width="7.5"></path><path d="M1145 436.81 L1145 479.44" stroke-width="7.5"></path><path d="M1155 184.33 L1155 326.83000000000004" stroke-width="7.5"></path><path d="M1155 338.08000000000004 L1155 345.58000000000004" stroke-width="7.5"></path><path d="M1155 356.83000000000004 L1155 375.67" stroke-width="7.5"></path><path d="M1165 49.92 L1165 510.08000000000004" stroke-width="7.5"></path><path d="M1175 173.19 L1175 293.19" stroke-width="7.5"></path><path d="M1175 304.44 L1175 386.81" stroke-width="7.5"></path><path d="M1185 95.81 L1185 170.81" stroke-width="7.5"></path><path d="M1185 182.06 L1185 204.56" stroke-width="7.5"></path><path d="M1185 215.81 L1185 464.19" stroke-width="7.5"></path><path d="M1195 106.41 L1195 241.41" stroke-width="7.5"></path><path d="M1195 252.66 L1195 282.65999999999997" stroke-width="7.5"></path><path d="M1195 293.90999999999997 L1195 453.59" stroke-width="7.5"></path><path d="M1205 103.19 L1205 170.69" stroke-width="7.5"></path><path d="M1205 181.94 L1205 456.81" stroke-width="7.5"></path><path d="M1215 61.09 L1215 226.09" stroke-width="7.5"></path><path d="M1215 237.34 L1215 244.84" stroke-width="7.5"></path><path d="M1215 256.09000000000003 L1215 498.9" stroke-width="7.5"></path><path d="M1225 249.11 L1225 310.89" stroke-width="7.5"></path><path d="M1235 159.7 L1235 219.7" stroke-width="7.5"></path><path d="M1235 230.95 L1235 320.95" stroke-width="7.5"></path><path d="M1235 332.2 L1235 400.3" stroke-width="7.5"></path><path d="M1245 45 L1245 420" stroke-width="7.5"></path><path d="M1245 431.25 L1245 468.75" stroke-width="7.5"></path><path d="M1245 480 L1245 515" stroke-width="7.5"></path><path d="M1255 60.68 L1255 465.68" stroke-width="7.5"></path><path d="M1255 476.93 L1255 499.32" stroke-width="7.5"></path><path d="M1265 72.77 L1265 305.27" stroke-width="7.5"></path><path d="M1265 316.52 L1265 361.52" stroke-width="7.5"></path><path d="M1265 372.77 L1265 487.23" stroke-width="7.5"></path><path d="M1275 50.56 L1275 88.06" stroke-width="7.5"></path><path d="M1275 99.31 L1275 414.31" stroke-width="7.5"></path><path d="M1275 425.56 L1275 509.44000000000005" stroke-width="7.5"></path><path d="M1285 65.5 L1285 103" stroke-width="7.5"></path><path d="M1285 114.25 L1285 264.25" stroke-width="7.5"></path><path d="M1285 275.5 L1285 494.5" stroke-width="7.5"></path><path d="M1295 19.25 L1295 424.25" stroke-width="7.5"></path><path d="M1295 435.5 L1295 510.5" stroke-width="7.5"></path><path d="M1295 521.75 L1295 540.75" stroke-width="7.5"></path><path d="M1305 193.64 L1305 261.14" stroke-width="7.5"></path><path d="M1305 272.39 L1305 287.39" stroke-width="7.5"></path><path d="M1305 298.64 L1305 366.36" stroke-width="7.5"></path><path d="M1315 237.26 L1315 267.26" stroke-width="7.5"></path><path d="M1315 278.51 L1315 322.74" stroke-width="7.5"></path><path d="M1325 95.53 L1325 208.03" stroke-width="7.5"></path><path d="M1325 219.28 L1325 286.78" stroke-width="7.5"></path><path d="M1325 298.03 L1325 464.47" stroke-width="7.5"></path><path d="M1335 106.18 L1335 151.18" stroke-width="7.5"></path><path d="M1335 162.43 L1335 192.43" stroke-width="7.5"></path><path d="M1335 203.68 L1335 453.82" stroke-width="7.5"></path><path d="M1345 76.94 L1345 241.94" stroke-width="7.5"></path><path d="M1345 253.19 L1345 418.19" stroke-width="7.5"></path><path d="M1345 429.44 L1345 483.06" stroke-width="7.5"></path><path d="M1355 152.53 L1355 347.53" stroke-width="7.5"></path><path d="M1355 358.78 L1355 407.47" stroke-width="7.5"></path><path d="M1365 85.66 L1365 474.34" stroke-width="7.5"></path><path d="M1375 64.96000000000001 L1375 364.96" stroke-width="7.5"></path><path d="M1375 376.21 L1375 436.21" stroke-width="7.5"></path><path d="M1375 447.46 L1375 495.04" stroke-width="7.5"></path><path d="M1385 224.78 L1385 277.28" stroke-width="7.5"></path><path d="M1385 288.53 L1385 303.53" stroke-width="7.5"></path><path d="M1385 314.78 L1385 335.23" stroke-width="7.5"></path><path d="M1395 200.57 L1395 223.07" stroke-width="7.5"></path><path d="M1395 234.32 L1395 359.43" stroke-width="7.5"></path><path d="M1405 20.4 L1405 245.4" stroke-width="7.5"></path><path d="M1405 256.65 L1405 421.65" stroke-width="7.5"></path><path d="M1405 432.9 L1405 539.6" stroke-width="7.5"></path><path d="M1415 215.41 L1415 344.6" stroke-width="7.5"></path><path d="M1425 155.74 L1425 404.26" stroke-width="7.5"></path><path d="M1435 152.59 L1435 197.59" stroke-width="7.5"></path><path d="M1435 208.84 L1435 238.84" stroke-width="7.5"></path><path d="M1435 250.09 L1435 407.41" stroke-width="7.5"></path></g></g><defs><mask id="SvgjsMask1889"><rect width="1440" height="560" fill="#ffffff"></rect></mask><linearGradient x1="1440" y1="280" x2="0" y2="280" gradientUnits="userSpaceOnUse" id="SvgjsLinearGradient1890"><stop stop-color="#3a7cc3" offset="0"></stop><stop stop-color="rgba(255, 0, 0, 0.35)" offset="1"></stop></linearGradient></defs></svg>